# xmcd
#
# Track frame offsets:
#	150
#	26553
#	47556
#	68996
#	83501
#	105679
#	132508
#	149130
#	160021
#	178744
#	194535
#	212551
#	231171
#	256363
#	278735
#
# Disc length: 4067 seconds
#
# Revision: 0
# Processed by: cddbd v1.5.1PL0 Copyright (c) Steve Scherf et al.
# Submitted via: dBpowerAMP V4.0
#
DISCID=db0fe10f
DTITLE=Various Artist - I Am a Cold Rock. I Am Dull Grass: A Tribute to the Music of Will Oldham - Disc 2
DYEAR=2004
DGENRE=Country
TTITLE0=Jeffrey Luck Lucas - Agnes, Queen of Sorrow
TTITLE1=Saint Aldrijn - Werner's Last Blues to Blokbuster
TTITLE2=Christian Kiefer - Viva Ultra
TTITLE3=Patrik Torsson - The Gator
TTITLE4=Joel Martin - Wolf Among Wolves
TTITLE5=Thistleblossom - Allowance
TTITLE6=Tiger Saw - Hard Life
TTITLE7=Diana Darby - Valentine's Day
TTITLE8=Last Harbour - Old Jerusalem
TTITLE9=The Prayers and Tears of Arthur Digby Sellers - Raining in Darling
TTITLE10=The Channel - Black
TTITLE11=Celestine - O, Let It Be
TTITLE12=Above the Orange Trees - Tonight's Decision (And Hereafter)
TTITLE13=Molasses - We All, Us Three, Will Ride
TTITLE14=Hudson Bell - Kid of Harith
EXTD=
EXTT0=
EXTT1=
EXTT2=
EXTT3=
EXTT4=
EXTT5=
EXTT6=
EXTT7=
EXTT8=
EXTT9=
EXTT10=
EXTT11=
EXTT12=
EXTT13=
EXTT14=
PLAYORDER=
